<?xml version="1.0" encoding="utf-8"?>
<!-- Generator: Adobe Illustrator 19.1.0, SVG Export Plug-In . SVG Version: 6.00 Build 0)  -->
<svg version="1.1" id="Capa_1" xmlns="http://www.w3.org/2000/svg" xmlns:xlink="http://www.w3.org/1999/xlink" x="0px" y="0px"
	 viewBox="0 0 248 246" style="enable-background:new 0 0 248 246;" xml:space="preserve">
<style type="text/css">
	.st0{fill:#009BDB;}
	.st1{fill:#FFFFFF;}
</style>
<g>
	<path class="st0" d="M229.8,125.6c0,58.4-47.4,105.8-105.8,105.8c-58.4,0-105.8-47.4-105.8-105.8S65.6,19.9,124,19.9
		C182.4,19.9,229.8,67.2,229.8,125.6"/>
	<path class="st1" d="M124,31.9c51.7,0,93.7,42.1,93.7,93.7s-42.1,93.7-93.7,93.7c-51.7,0-93.7-42.1-93.7-93.7S72.3,31.9,124,31.9
		 M124,27.6c-54.2,0-98.1,43.9-98.1,98.1c0,54.2,43.9,98.1,98.1,98.1c54.2,0,98.1-43.9,98.1-98.1C222.1,71.5,178.2,27.6,124,27.6"/>
	<path class="st1" d="M80,114.3h-8.6v16.9h-8.8V86.3H80c9.3,0,14.8,6.4,14.8,14S89.3,114.3,80,114.3 M79.6,94.1h-8.2v12.3h8.2
		c4,0,6.5-2.5,6.5-6.1C86.1,96.6,83.6,94.1,79.6,94.1"/>
	<path class="st1" d="M124.6,131.2l-2.6-7.9h-16l-2.7,7.9h-9.1l16.3-44.9h6.9l16.4,44.9H124.6z M114.2,99.5l-5.7,16.3h11.2
		L114.2,99.5z"/>
	<rect x="139.3" y="86.3" class="st1" width="8.8" height="44.9"/>
	<path class="st1" d="M170.9,131.6c-6.8,0-12-1.5-16.4-5.9l5.7-5.7c2.8,2.8,6.7,3.8,10.8,3.8c5.2,0,7.9-2,7.9-5.6
		c0-1.6-0.4-2.9-1.4-3.8c-0.9-0.8-1.9-1.3-4-1.6l-5.4-0.8c-3.8-0.6-6.7-1.8-8.7-3.7c-2.1-2.1-3.2-5-3.2-8.8c0-8,5.9-13.6,15.6-13.6
		c6.2,0,10.7,1.5,14.5,5.2l-5.6,5.5c-2.8-2.7-6.2-3.1-9.2-3.1c-4.7,0-6.9,2.6-6.9,5.7c0,1.1,0.4,2.3,1.3,3.2
		c0.9,0.8,2.3,1.5,4.2,1.8l5.3,0.8c4.1,0.6,6.7,1.7,8.6,3.5c2.4,2.3,3.5,5.5,3.5,9.5C187.6,126.7,180.3,131.6,170.9,131.6"/>
	<path class="st1" d="M78.3,163.1c-1.6,1.6-3.9,2.4-6.6,2.4h-9V140h9c2.7,0,5,0.8,6.6,2.4c2.8,2.8,2.6,6.5,2.6,10.2
		C80.9,156.3,81.1,160.4,78.3,163.1 M75.7,145.2c-1.1-1.2-2.5-1.7-4.3-1.7h-4.7v18.6h4.7c1.8,0,3.3-0.5,4.3-1.7
		c1.3-1.5,1.4-4.2,1.4-7.7S77,146.7,75.7,145.2"/>
	<rect x="86.7" y="140" class="st1" width="3.9" height="25.5"/>
	<path class="st1" d="M112.5,162.8c-1.9,2-4.3,2.9-7,2.9c-2.7,0-4.9-1-6.7-2.7c-2.5-2.5-2.5-5.3-2.5-10.2c0-4.9,0-7.7,2.5-10.2
		c1.8-1.8,4-2.7,6.7-2.7c5.4,0,8.6,3.5,9.3,7.9h-3.9c-0.6-2.8-2.5-4.4-5.4-4.4c-1.5,0-2.9,0.6-3.8,1.6c-1.3,1.4-1.5,2.8-1.5,7.9
		c0,5.1,0.3,6.6,1.5,8c0.9,1,2.3,1.5,3.8,1.5c1.7,0,3.2-0.6,4.2-1.8c0.9-1.1,1.3-2.4,1.3-4V155h-5.4v-3.3h9.3v3.9
		C114.8,158.9,114.1,161,112.5,162.8"/>
	<rect x="120.5" y="140" class="st1" width="3.9" height="25.5"/>
	<polygon class="st1" points="139.6,143.5 139.6,165.5 135.8,165.5 135.8,143.5 128.7,143.5 128.7,140 146.6,140 146.6,143.5 	"/>
	<path class="st1" d="M163.6,165.5l-1.8-5.1h-10.1l-1.8,5.1h-4.1l9.4-25.5h3.1l9.4,25.5H163.6z M156.9,145.8l-4,11.3h7.8
		L156.9,145.8z"/>
	<polygon class="st1" points="171.3,165.5 171.3,140 175.2,140 175.2,162.1 187.5,162.1 187.5,165.5 	"/>
</g>
</svg>
